<svg id="Layer_1" data-name="Layer 1" xmlns="http://www.w3.org/2000/svg" viewBox="0 0 272.48 32.08"><defs><style>.cls-1{fill:#617fa6;}</style></defs><path class="cls-1" d="M25.41,38.14v-7.9l-.62.27V39.3a7.37,7.37,0,0,1,3.4-.86c1.5,0,2.26.2,4.65,1.66,1.62,1,1.94,1.57,2.82,1.57a4.79,4.79,0,0,0,2.44-.81l1.25-.62c-1.8-1.05-4.13-3-5.1-3.43A5.12,5.12,0,0,0,32,36.16C31,36.16,29.73,36.16,25.41,38.14Z" transform="translate(-13.57 -30.24)"/><path class="cls-1" d="M26.15,39.64c-.38.13-.9.33-1.36.54V61.45l.61-.26V40.64s1-.3,2.54.86,1.85,1,2.07,1A4.59,4.59,0,0,0,31.6,42l.93-.42-1.44-1a5.77,5.77,0,0,0-3.15-1.16A5.89,5.89,0,0,0,26.15,39.64Z" transform="translate(-13.57 -30.24)"/><path class="cls-1" d="M23.91,40.56V61.82l-1.14.5V41.6s-5.69,2.47-5.85,2.47-.3.06-.42-.1,0-.25.05-.28Z" transform="translate(-13.57 -30.24)"/><path class="cls-1" d="M23.91,30.88v8.8L16.7,42.77a5.32,5.32,0,0,1-1.66.32c-.6,0-1.47-.38-1.47-1.05a.51.51,0,0,1,.29-.46l2.5-1.09a2.67,2.67,0,0,0,1.87.54,2.53,2.53,0,0,0,.95-.21l3.6-1.54V31.35Z" transform="translate(-13.57 -30.24)"/><path class="cls-1" d="M58.59,48.57a19.44,19.44,0,0,1-5.16.91c-5.55,0-8.47-2.8-8.47-7.81a7.08,7.08,0,0,1,4.17-6.73,10.71,10.71,0,0,1,4.63-.9,38,38,0,0,1,4.69.52A25.4,25.4,0,0,0,58,38.33a1,1,0,0,1-.79.07c-.19-1.77-.47-2.44-1.16-2.84a6.12,6.12,0,0,0-3.22-.66c-3.7,0-5.48,2.63-5.48,6.52,0,4.07,2.18,7.23,6.47,7.23a3.22,3.22,0,0,0,1.59-.31,1.24,1.24,0,0,0,.52-1,21.19,21.19,0,0,0,0-2.41c0-.79-.19-1.07-.88-1.26-.42-.1-.85-.14-1.59-.24-.11-.07-.07-.61,0-.69.73,0,1.87.08,3.32.08s2.11,0,2.58-.08a1.11,1.11,0,0,1,0,.72,4.64,4.64,0,0,0-.78.16c-.46.14-.57.45-.6,1.14s0,2.18,0,2.63.07.48.6.69A1.18,1.18,0,0,1,58.59,48.57Z" transform="translate(-13.57 -30.24)"/><path class="cls-1" d="M63.12,47.84a5.77,5.77,0,0,1-1.49-4,5.23,5.23,0,0,1,1.11-3.34,6,6,0,0,1,4.74-2.14,5.16,5.16,0,0,1,5.43,5.34,5.29,5.29,0,0,1-1.09,3.48,6,6,0,0,1-8.7.69Zm7.68-3.63c0-2.56-1.16-5.05-3.88-5.05-2.21,0-3.13,2-3.13,4.2,0,2.68,1.3,5.12,4,5.12C70,48.48,70.8,46.42,70.8,44.21Z" transform="translate(-13.57 -30.24)"/><path class="cls-1" d="M74.65,38.57c.47,0,1.49.07,2.65.07,1,0,2.21-.07,2.56-.07.1.07.07.59,0,.69-.47,0-.83.12-1.07.14-.4.12-.49.38-.52.74,0,.56,0,1.65,0,3.41,0,1.52,0,3.32,0,4a.68.68,0,0,0,.35.52,22.45,22.45,0,0,0,2.56.12,1.39,1.39,0,0,0,1.12-.57,14.69,14.69,0,0,0,1.21-2.11,1,1,0,0,1,.64.24,14.83,14.83,0,0,1-1,3.08c-.12.21-.33.3-.71.3-1.09,0-4.36-.09-5.26-.09s-2.45.07-2.83.07a.94.94,0,0,1,0-.66,11.49,11.49,0,0,0,1.38-.19.65.65,0,0,0,.55-.69c0-.48.07-1.92.07-4.13,0-1.78,0-2.58,0-3,0-.71-.19-.9-.64-1a5.07,5.07,0,0,0-1.06-.16A1.09,1.09,0,0,1,74.65,38.57Z" transform="translate(-13.57 -30.24)"/><path class="cls-1" d="M85.55,38.57c.36,0,1.73.07,2.37.07,1,0,1.9,0,3.53,0a6.08,6.08,0,0,1,3.8,1.17,4.92,4.92,0,0,1,1.63,3.84A5,5,0,0,1,94.7,48a6.7,6.7,0,0,1-4.17,1.21c-1.28,0-3.15-.09-4.41-.09h-.78a1.16,1.16,0,0,1,0-.69,8.41,8.41,0,0,0,1.35-.17c.33-.07.55-.21.59-.8,0-1,0-2.25,0-3.77,0-1,0-2.8,0-3.44s-.21-.71-.64-.8c-.26,0-.69-.12-1.14-.17A.91.91,0,0,1,85.55,38.57Zm4,9.27a2.4,2.4,0,0,0,1.64.5,3.39,3.39,0,0,0,2.3-.78,4.72,4.72,0,0,0,1.38-3.66A4.14,4.14,0,0,0,93,40.06a4.74,4.74,0,0,0-2.7-.66,2.56,2.56,0,0,0-.86.1.34.34,0,0,0-.17.28c0,.38,0,2.49,0,3.91s0,3.2.07,3.53A1,1,0,0,0,89.53,47.84Z" transform="translate(-13.57 -30.24)"/><path class="cls-1" d="M98.28,38.57c.46,0,1.64.07,2.61.07h3.75a15.61,15.61,0,0,0,2.06-.09s.1.09.1.11a17,17,0,0,0-.29,2.54.87.87,0,0,1-.68,0,7.6,7.6,0,0,0-.24-1,.88.88,0,0,0-.93-.72c-.31,0-2.37,0-2.58,0a.4.4,0,0,0-.24.33c0,1.12,0,2.52,0,3.3,0,0,0,.12.1.12.88,0,1.87,0,2.46,0a.71.71,0,0,0,.67-.57,6,6,0,0,0,.16-.72,1.5,1.5,0,0,1,.74.08,15.81,15.81,0,0,0-.12,1.73c0,.47,0,1.25.05,1.73a1.33,1.33,0,0,1-.74,0c-.07-.38-.12-.52-.16-.73a.68.68,0,0,0-.6-.53c-.54,0-1.7,0-2.46,0,0,0-.1.09-.1.14,0,.78,0,2.11,0,2.94a.83.83,0,0,0,.42.74,18.72,18.72,0,0,0,2.73.09,1.36,1.36,0,0,0,1.28-.66,7.39,7.39,0,0,0,.81-1.5c.09,0,.63.12.66.26a13,13,0,0,1-.71,2.49c-.15.29-.26.36-1,.36-1.42,0-2.25-.05-5.19-.05-1.45,0-2.45.07-3.06.07a1.34,1.34,0,0,1,0-.69,12.54,12.54,0,0,0,1.56-.19c.43-.12.52-.31.57-.92,0-.4,0-2,0-3.91,0-1.54,0-2.82,0-3.13,0-.55-.12-.71-.52-.83a10.8,10.8,0,0,0-1.16-.19A1,1,0,0,1,98.28,38.57Z" transform="translate(-13.57 -30.24)"/><path class="cls-1" d="M109.48,38.57c.54,0,1.49.07,2.46.07h1.14a3.84,3.84,0,0,0,.64.93c1.75,2.18,4.88,6,5.71,6.9,0,0,0,0,.07,0,0-2.32,0-4.88-.07-6.07,0-.52-.19-.8-.71-.92-.28-.07-.76-.12-1.26-.19a1,1,0,0,1,0-.69c.43,0,1.45.07,2.52.07s1.92-.07,2.16-.07a1,1,0,0,1,0,.69,4.64,4.64,0,0,0-1,.16c-.45.17-.54.43-.57.88-.07,1.28-.09,4.25-.12,6.52,0,.76,0,1.8,0,2.37a7.42,7.42,0,0,0-1.49,0c-.83-1.16-5.43-6.92-6.5-8.25,0,0-.07,0-.07,0,0,1.75,0,5.36,0,6.33a.87.87,0,0,0,.71,1,8.34,8.34,0,0,0,1.11.19.87.87,0,0,1,0,.69c-.41,0-1.47-.07-2.42-.07-1.16,0-1.85.07-2.28.07a.76.76,0,0,1,0-.69,5.14,5.14,0,0,0,1.12-.19c.4-.14.54-.42.59-.92.07-.88.12-3.27.12-6.88a.92.92,0,0,0-.45-.83,4.28,4.28,0,0,0-1.52-.35A.87.87,0,0,1,109.48,38.57Z" transform="translate(-13.57 -30.24)"/><path class="cls-1" d="M128.7,34.4c.57,0,1.76.07,3,.07,1.59,0,2.3-.07,3-.07a.93.93,0,0,1,0,.66,10.58,10.58,0,0,0-1.14.22c-.47.14-.64.33-.66,1.08s0,2.09,0,4.42c0,.09.05.21.12.23s.6.05,4,.05c2.61,0,3.51,0,3.73-.05a.17.17,0,0,0,.14-.14c0-1.23,0-3.91-.05-4.77a.77.77,0,0,0-.47-.78,7,7,0,0,0-1.4-.26c-.12-.09-.1-.57,0-.69.55,0,1.71.1,3,.1s2.56-.07,2.94-.07a.94.94,0,0,1,0,.66,7.36,7.36,0,0,0-1.24.24c-.52.16-.61.43-.66,1.28s0,2.23,0,5.05c0,2.06,0,4.67,0,5.47s.21.93.66,1.07a6.68,6.68,0,0,0,1.52.26c.07.1.05.62-.09.69-.72,0-2-.07-3.18-.07s-2.4.05-3,.07a.83.83,0,0,1,0-.69,7.91,7.91,0,0,0,1.35-.23c.43-.12.57-.36.62-1.1s0-3.27,0-4.76c0-.07-.07-.17-.14-.17-.45,0-2.47,0-3.77,0-1.85,0-3.8,0-4,0-.05,0-.08.12-.08.15,0,1.3,0,4,0,4.52.05.81.14,1.14.73,1.31a10.21,10.21,0,0,0,1.43.28.85.85,0,0,1-.1.69c-.45,0-1.56-.07-3.08-.07s-2.68.07-3.15.07a1,1,0,0,1,0-.69c.57-.07.95-.14,1.28-.21.69-.21.76-.64.83-1.73,0-.81,0-2.82,0-4.89,0-2.3,0-4.81,0-5.24-.05-.66-.19-.92-.66-1a9.91,9.91,0,0,0-1.43-.26A.84.84,0,0,1,128.7,34.4Z" transform="translate(-13.57 -30.24)"/><path class="cls-1" d="M146.68,38.57c.35,0,1.61.07,2.53.07s2.18-.07,2.66-.07a1,1,0,0,1,0,.71,7.61,7.61,0,0,0-1,.14c-.41.1-.52.31-.55.84-.05.71-.05,1.91-.05,3.41,0,1.66,0,3.08.05,3.65s.14.78.64.92a6.18,6.18,0,0,0,1.16.19,1.09,1.09,0,0,1,0,.69c-.43,0-1.9-.07-2.77-.07s-2.16.07-2.71.07a1,1,0,0,1,0-.69c.41,0,.88-.11,1.12-.16.5-.12.57-.36.61-.76s0-2,0-4.2c0-1.37,0-2.3,0-3.1,0-.45-.11-.64-.47-.76a9.38,9.38,0,0,0-1.18-.17C146.58,39.19,146.63,38.64,146.68,38.57Z" transform="translate(-13.57 -30.24)"/><path class="cls-1" d="M153.74,38.57c.48,0,1.5.07,2.66.07.95,0,2.2-.07,2.56-.07.1.07.07.59,0,.69-.47,0-.83.12-1.07.14-.4.12-.49.38-.52.74,0,.56,0,1.65,0,3.41,0,1.52,0,3.32.05,4a.68.68,0,0,0,.35.52,22.45,22.45,0,0,0,2.56.12,1.4,1.4,0,0,0,1.12-.57,14.69,14.69,0,0,0,1.21-2.11,1,1,0,0,1,.64.24,15.44,15.44,0,0,1-1,3.08c-.12.21-.33.3-.71.3-1.09,0-4.36-.09-5.26-.09s-2.45.07-2.83.07a.94.94,0,0,1,0-.66,11.49,11.49,0,0,0,1.38-.19.63.63,0,0,0,.54-.69c0-.48.07-1.92.07-4.13,0-1.78,0-2.58,0-3,0-.71-.19-.9-.64-1a5.18,5.18,0,0,0-1.07-.16A1.24,1.24,0,0,1,153.74,38.57Z" transform="translate(-13.57 -30.24)"/><path class="cls-1" d="M164,38.57c.47,0,1.49.07,2.65.07,1,0,2.21-.07,2.56-.07.1.07.07.59,0,.69-.47,0-.83.12-1.06.14-.41.12-.5.38-.53.74,0,.56,0,1.65,0,3.41,0,1.52,0,3.32,0,4a.68.68,0,0,0,.35.52,22.58,22.58,0,0,0,2.56.12,1.39,1.39,0,0,0,1.12-.57,14.69,14.69,0,0,0,1.21-2.11,1,1,0,0,1,.64.24,14.83,14.83,0,0,1-1,3.08c-.12.21-.33.3-.71.3-1.09,0-4.36-.09-5.26-.09s-2.44.07-2.82.07a.84.84,0,0,1,0-.66,11.28,11.28,0,0,0,1.37-.19.65.65,0,0,0,.55-.69c0-.48.07-1.92.07-4.13,0-1.78,0-2.58,0-3,0-.71-.19-.9-.64-1a5.07,5.07,0,0,0-1.06-.16A1.09,1.09,0,0,1,164,38.57Z" transform="translate(-13.57 -30.24)"/><path class="cls-1" d="M176.6,48.08a2.94,2.94,0,0,0,1.73.5c.92,0,1.9-.43,1.9-1.62,0-1-.57-1.51-2.42-2.39s-2.75-1.76-2.75-3.3c0-1.84,1.73-2.94,3.72-2.94a11.93,11.93,0,0,1,1.73.12c.5.07,1,.15,1.21.15-.09.54-.24,1.84-.28,2.7a.91.91,0,0,1-.69,0c-.12-1.07-.33-1.57-.74-1.85a2.52,2.52,0,0,0-1.49-.43,1.6,1.6,0,0,0-1.78,1.61A2,2,0,0,0,178,42.44c.88.45,1.61.75,2.35,1.13a2.84,2.84,0,0,1,1.78,2.59c0,1.75-1.57,3.22-4.18,3.22a8.56,8.56,0,0,1-2.82-.54,17.16,17.16,0,0,1-.5-2.85,1.2,1.2,0,0,1,.69-.14A3.9,3.9,0,0,0,176.6,48.08Z" transform="translate(-13.57 -30.24)"/><path class="cls-1" d="M50,55.94a2.09,2.09,0,0,0-1-.21c-1,0-1.6.77-1.6,2.23a2.1,2.1,0,0,0,2,2.35,1.22,1.22,0,0,0,.78-.23,4,4,0,0,0,.72-.89.74.74,0,0,1,.34.23,3.11,3.11,0,0,1-.76,1.23,3.66,3.66,0,0,1-1.31.23c-2,0-3.13-1-3.13-2.84a2.59,2.59,0,0,1,1.44-2.38,3.9,3.9,0,0,1,1.74-.37c.83,0,1.47.16,1.82.16a12.14,12.14,0,0,0-.12,1.48c0,.06-.39.1-.4,0C50.43,56.37,50.36,56.13,50,55.94Z" transform="translate(-13.57 -30.24)"/><path class="cls-1" d="M55.29,60.1a2.91,2.91,0,0,1-.74-2,2.54,2.54,0,0,1,.92-2,3.07,3.07,0,0,1,2.06-.74A2.58,2.58,0,0,1,60.28,58a2.74,2.74,0,0,1-2.87,2.89A2.83,2.83,0,0,1,55.29,60.1Zm3.09,0A2.38,2.38,0,0,0,59,58.3a2.82,2.82,0,0,0-.82-2.23,1.33,1.33,0,0,0-.87-.3,1.23,1.23,0,0,0-.65.17,2.15,2.15,0,0,0-.72,1.89,2.88,2.88,0,0,0,.89,2.24,1.41,1.41,0,0,0,.9.3A1,1,0,0,0,58.38,60.12Z" transform="translate(-13.57 -30.24)"/><path class="cls-1" d="M63.52,55.42c.58,0,1.37,0,2.09,0a2.43,2.43,0,0,0,.18.58c.37.8,1.08,2.3,1.31,2.73a0,0,0,0,0,.06,0c.21-.39,1-2.1,1.32-2.79a2.1,2.1,0,0,0,.16-.51c1.16,0,1.54,0,2,0a.61.61,0,0,1,0,.4,5.16,5.16,0,0,0-.6.11c-.17.06-.22.19-.22.39,0,.61.06,2.87.11,3.46,0,.23.08.4.31.46s.32.07.56.12a.59.59,0,0,1,0,.39c-.29,0-.71,0-1.48,0-.48,0-.89,0-1.29,0a.58.58,0,0,1,0-.39,4.13,4.13,0,0,0,.5-.12c.15-.05.19-.13.2-.41,0-.67,0-2,0-3,0,0,0,0,0,0-.34.78-1.43,3.1-1.69,3.83a1.24,1.24,0,0,1-.43,0c-.22-.72-1.06-2.63-1.56-3.79a0,0,0,0,0-.06,0c-.06.87-.12,2.18-.13,2.86,0,.25,0,.39.29.48a5.49,5.49,0,0,0,.61.12.53.53,0,0,1,0,.39c-.19,0-.66,0-1.31,0-.39,0-.81,0-1.08,0a.58.58,0,0,1,0-.39c.18,0,.38-.06.5-.1s.33-.2.37-.53c.09-.69.26-2.68.29-3.39a.37.37,0,0,0-.22-.38,5.18,5.18,0,0,0-.68-.14A.89.89,0,0,1,63.52,55.42Z" transform="translate(-13.57 -30.24)"/><path class="cls-1" d="M74.2,55.42c.58,0,1.37,0,2.09,0a2.43,2.43,0,0,0,.18.58c.37.8,1.08,2.3,1.31,2.73a0,0,0,0,0,.06,0c.21-.39,1-2.1,1.32-2.79a2.1,2.1,0,0,0,.16-.51c1.16,0,1.54,0,2,0a.61.61,0,0,1,0,.4,5.16,5.16,0,0,0-.6.11c-.17.06-.22.19-.22.39,0,.61.06,2.87.11,3.46,0,.23.08.4.31.46s.32.07.56.12a.59.59,0,0,1,0,.39c-.29,0-.71,0-1.48,0-.48,0-.89,0-1.29,0a.58.58,0,0,1,0-.39,4.13,4.13,0,0,0,.5-.12c.15-.05.19-.13.2-.41,0-.67,0-2,0-3,0,0,0,0,0,0-.34.78-1.43,3.1-1.69,3.83a1.24,1.24,0,0,1-.43,0C77,60,76.12,58,75.62,56.88a0,0,0,0,0-.06,0c-.06.87-.12,2.18-.13,2.86,0,.25,0,.39.29.48a5.49,5.49,0,0,0,.61.12.53.53,0,0,1,0,.39c-.19,0-.66,0-1.31,0-.39,0-.81,0-1.08,0a.58.58,0,0,1,0-.39c.18,0,.38-.06.5-.1s.33-.2.37-.53c.09-.69.26-2.68.29-3.39a.37.37,0,0,0-.22-.38,5.18,5.18,0,0,0-.68-.14A.89.89,0,0,1,74.2,55.42Z" transform="translate(-13.57 -30.24)"/><path class="cls-1" d="M84.58,55.43l1.38,0,1.35,0a.68.68,0,0,1,0,.4c-.18,0-.35.07-.45.08s-.29.21-.29.48c0,.73,0,1.25,0,1.72,0,.22,0,.74.05,1,.07.59.5,1,1.42,1,.59,0,1.28-.14,1.36-1.44,0-.65,0-1.8,0-2.26,0-.3-.06-.48-.37-.54a4.24,4.24,0,0,0-.58-.1.77.77,0,0,1,0-.4c.35,0,.77,0,1.21,0,.68,0,1,0,1.13,0a.61.61,0,0,1,0,.4c-.14,0-.28,0-.42.08s-.29.21-.31.63c0,.66,0,1.64-.12,2.24a2,2,0,0,1-2.32,2.1c-1.59,0-2.11-.77-2.2-1.65,0-.62,0-2.4-.06-2.88a.4.4,0,0,0-.28-.42,2.55,2.55,0,0,0-.51-.1A.74.74,0,0,1,84.58,55.43Z" transform="translate(-13.57 -30.24)"/><path class="cls-1" d="M94,55.42c.29,0,.66,0,1.3,0h.66a2,2,0,0,0,.34.5c.75,1,2,2.55,2.56,3.14l0,0c0-1.13,0-2,0-2.65,0-.29-.1-.43-.38-.5a4.89,4.89,0,0,0-.59-.09.77.77,0,0,1,0-.4c.2,0,.6,0,1.25,0s.94,0,1.12,0a.9.9,0,0,1,0,.4l-.37.08c-.24.07-.34.14-.37.52-.06.68-.07,1.73-.08,3.14,0,.4,0,.9,0,1.22a6.32,6.32,0,0,0-.87,0c-.6-.8-2.35-3.07-3.08-4a0,0,0,0,0,0,0c0,.94,0,2.45,0,2.87s.15.49.39.55.3.06.55.11a.59.59,0,0,1,0,.39c-.35,0-.76,0-1.19,0s-.9,0-1.22,0a.74.74,0,0,1,0-.39,3.92,3.92,0,0,0,.54-.12.51.51,0,0,0,.3-.49c0-.48.07-2.08.08-3.27A.51.51,0,0,0,94.6,56a2,2,0,0,0-.62-.14A.81.81,0,0,1,94,55.42Z" transform="translate(-13.57 -30.24)"/><path class="cls-1" d="M103.51,55.42c.26,0,.73,0,1.31,0,.79,0,1.15,0,1.38,0a.61.61,0,0,1,0,.4,2.74,2.74,0,0,0-.51.08c-.2.07-.21.21-.22.4s0,.81,0,1.56,0,1.64,0,2,0,.34.27.41.37.08.58.12a.54.54,0,0,1-.06.39c-.24,0-.69,0-1.36,0s-1.13,0-1.4,0c-.06,0-.06-.36,0-.39l.44-.08c.26-.05.3-.14.33-.42s0-1.28,0-2c0-.88,0-1.23,0-1.59,0-.2-.07-.31-.23-.36a2.35,2.35,0,0,0-.54-.1A.68.68,0,0,1,103.51,55.42Z" transform="translate(-13.57 -30.24)"/><path class="cls-1" d="M113.53,60.75c-.33,0-.86,0-1.54,0s-1.26,0-1.53,0a.44.44,0,0,1,0-.39c.26,0,.49-.07.61-.1.27-.06.33-.18.35-.53,0-.92,0-2.24,0-3.65,0,0,0-.08,0-.08a7.63,7.63,0,0,0-.85,0c-.14,0-.27,0-.4.31a8,8,0,0,0-.31.77.62.62,0,0,1-.43-.11c.07-.37.16-1.12.2-1.57,0,0,.09-.07.11-.06a2.41,2.41,0,0,0,.81.12h3.07a3.16,3.16,0,0,0,1-.11s.07.06.08.08a11.16,11.16,0,0,0-.23,1.6.79.79,0,0,1-.43,0,5.24,5.24,0,0,0-.15-.8.33.33,0,0,0-.32-.26c-.32,0-.75,0-.93,0a.1.1,0,0,0,0,.07c0,1.27,0,3.35,0,3.81a.4.4,0,0,0,.22.38,5.92,5.92,0,0,0,.71.13A.49.49,0,0,1,113.53,60.75Z" transform="translate(-13.57 -30.24)"/><path class="cls-1" d="M117.81,55.42c.27,0,.75,0,1.18,0s1.19,0,1.33,0a.51.51,0,0,1,0,.4l-.27,0c-.13,0-.09.15,0,.25.16.36.74,1.52.89,1.76a.06.06,0,0,0,.07,0,13.12,13.12,0,0,0,.89-1.72c0-.13,0-.22-.18-.26a4.79,4.79,0,0,0-.48-.08.75.75,0,0,1,0-.4c.32,0,.64,0,1.13,0s.76,0,1.07,0a.68.68,0,0,1,0,.4,2.42,2.42,0,0,0-.43.09c-.26.08-.38.16-.64.57s-.89,1.48-1.09,1.88a.74.74,0,0,0-.1.4c0,.37,0,.53,0,1,0,.3,0,.48.29.53s.35.06.56.1a.67.67,0,0,1,0,.39c-.25,0-.93,0-1.47,0-.7,0-1,0-1.4,0a.65.65,0,0,1,0-.39c.26,0,.49-.07.63-.11s.26-.2.26-.45c0-.42,0-.56,0-.94a1.34,1.34,0,0,0-.11-.45c-.17-.37-.66-1.29-1-1.88s-.39-.58-.64-.65a2.49,2.49,0,0,0-.49-.08A.64.64,0,0,1,117.81,55.42Z" transform="translate(-13.57 -30.24)"/><path class="cls-1" d="M134.67,55.94a2.05,2.05,0,0,0-1-.21c-1,0-1.61.77-1.61,2.23a2.11,2.11,0,0,0,2,2.35,1.22,1.22,0,0,0,.78-.23,3.72,3.72,0,0,0,.72-.89.65.65,0,0,1,.34.23,3.11,3.11,0,0,1-.76,1.23,3.61,3.61,0,0,1-1.31.23c-2,0-3.13-1-3.13-2.84a2.61,2.61,0,0,1,1.44-2.38,3.9,3.9,0,0,1,1.74-.37c.83,0,1.47.16,1.83.16a12.14,12.14,0,0,0-.12,1.48c-.05.06-.4.1-.41,0C135.09,56.37,135,56.13,134.67,55.94Z" transform="translate(-13.57 -30.24)"/><path class="cls-1" d="M139.18,55.42c.2,0,.52,0,1.27,0s1.11,0,1.32,0a.61.61,0,0,1,0,.4,3.29,3.29,0,0,0-.46.08c-.17.07-.2.19-.2.4s0,.74,0,1.34a.12.12,0,0,0,0,.08,9.19,9.19,0,0,0,1.16,0l1.06,0s.06,0,.06-.06V56.22c0-.11,0-.25-.16-.29a1.82,1.82,0,0,0-.57-.11.51.51,0,0,1,0-.4c.37,0,.67,0,1.31,0s1,0,1.28,0a.47.47,0,0,1,0,.4,2.29,2.29,0,0,0-.48.09c-.18.07-.19.18-.21.46,0,.49,0,.9,0,1.7,0,.64,0,1.41,0,1.77,0,.18,0,.33.21.39a3.12,3.12,0,0,0,.61.13s0,.35-.05.39-.7,0-1.38,0-1.11,0-1.3,0a.41.41,0,0,1,0-.39,3.37,3.37,0,0,0,.51-.11c.12,0,.19-.15.19-.35,0-.37,0-.93,0-1.5a.05.05,0,0,0,0,0h-1.1a8.35,8.35,0,0,0-1.16,0v0c0,.54,0,1.12,0,1.39s0,.37.25.44.33.07.55.12a.58.58,0,0,1-.05.39c-.13,0-.56,0-1.42,0-.69,0-1.13,0-1.29,0a.65.65,0,0,1,0-.39,4,4,0,0,0,.45-.1c.24-.06.3-.21.31-.53s0-.94,0-1.72,0-1.45,0-1.67,0-.37-.22-.43a3,3,0,0,0-.52-.09A.61.61,0,0,1,139.18,55.42Z" transform="translate(-13.57 -30.24)"/><path class="cls-1" d="M148.62,55.43l1.38,0,1.35,0a.68.68,0,0,1,0,.4c-.18,0-.35.07-.45.08s-.29.21-.29.48c0,.73,0,1.25,0,1.72,0,.22,0,.74,0,1,.07.59.51,1,1.42,1,.59,0,1.28-.14,1.36-1.44,0-.65,0-1.8,0-2.26,0-.3-.06-.48-.36-.54a4.43,4.43,0,0,0-.59-.1.68.68,0,0,1,0-.4c.34,0,.76,0,1.2,0,.68,0,1,0,1.13,0a.61.61,0,0,1,0,.4c-.14,0-.28,0-.41.08s-.3.21-.32.63c0,.66,0,1.64-.12,2.24a2,2,0,0,1-2.32,2.1c-1.58,0-2.11-.77-2.2-1.65-.05-.62-.05-2.4-.06-2.88a.4.4,0,0,0-.28-.42,2.43,2.43,0,0,0-.5-.1A.65.65,0,0,1,148.62,55.43Z" transform="translate(-13.57 -30.24)"/><path class="cls-1" d="M158.09,55.42l1.24,0c.84,0,1.35,0,1.64,0,1.09,0,1.7.62,1.7,1.37a1.42,1.42,0,0,1-1,1.34s0,.06,0,.07A12.34,12.34,0,0,0,163,59.94a1.19,1.19,0,0,0,.91.42s0,.38-.09.39a4.56,4.56,0,0,1-1.72-.19,1.36,1.36,0,0,1-.45-.38c-.35-.44-.71-1-1-1.49a.27.27,0,0,0-.24-.13H160s0,0,0,.06c0,.51,0,1,0,1.27s.07.33.26.37a4.45,4.45,0,0,0,.51.11c.06,0,0,.38,0,.39s-.61,0-1.32,0-1.1,0-1.34,0c-.05,0-.07-.35,0-.39l.45-.08c.19,0,.26-.16.27-.42s0-1.26,0-1.78c0-.94,0-1.54,0-1.81s-.09-.31-.26-.36a3.83,3.83,0,0,0-.5-.09C158,55.74,158,55.45,158.09,55.42Zm2,.5s-.06.1-.06.14c0,.28,0,1.3,0,1.92,0,0,0,.07.06.07a2.64,2.64,0,0,0,1-.11.88.88,0,0,0,.45-.88,1.05,1.05,0,0,0-1.13-1.18A1.45,1.45,0,0,0,160.05,55.92Z" transform="translate(-13.57 -30.24)"/><path class="cls-1" d="M170.48,55.94a2.09,2.09,0,0,0-1-.21c-1,0-1.6.77-1.6,2.23a2.1,2.1,0,0,0,2,2.35,1.22,1.22,0,0,0,.78-.23,4,4,0,0,0,.72-.89.74.74,0,0,1,.34.23,3.11,3.11,0,0,1-.76,1.23,3.61,3.61,0,0,1-1.31.23c-2,0-3.13-1-3.13-2.84A2.59,2.59,0,0,1,168,55.66a3.9,3.9,0,0,1,1.74-.37c.83,0,1.47.16,1.83.16a10.31,10.31,0,0,0-.13,1.48c0,.06-.39.1-.4,0C170.9,56.37,170.83,56.13,170.48,55.94Z" transform="translate(-13.57 -30.24)"/><path class="cls-1" d="M175,55.42c.21,0,.52,0,1.27,0s1.12,0,1.33,0a.68.68,0,0,1,0,.4,3.29,3.29,0,0,0-.46.08c-.17.07-.21.19-.21.4s0,.74,0,1.34a.12.12,0,0,0,.05.08,9.06,9.06,0,0,0,1.16,0l1.06,0s.06,0,.06-.06c0-.43,0-1,0-1.44,0-.11,0-.25-.15-.29a1.89,1.89,0,0,0-.57-.11.47.47,0,0,1,0-.4c.37,0,.68,0,1.32,0s1,0,1.28,0a.47.47,0,0,1,0,.4,2.16,2.16,0,0,0-.48.09c-.18.07-.2.18-.22.46,0,.49,0,.9,0,1.7,0,.64,0,1.41,0,1.77,0,.18.05.33.22.39a3,3,0,0,0,.6.13.59.59,0,0,1,0,.39c-.2,0-.69,0-1.37,0s-1.11,0-1.31,0a.48.48,0,0,1,0-.39,3.11,3.11,0,0,0,.51-.11c.13,0,.19-.15.2-.35,0-.37,0-.93,0-1.5,0,0,0,0-.05,0h-1.1a8.1,8.1,0,0,0-1.16,0s0,0,0,0c0,.54,0,1.12,0,1.39s0,.37.25.44.34.07.56.12a.53.53,0,0,1-.06.39c-.12,0-.56,0-1.41,0s-1.14,0-1.29,0a.58.58,0,0,1,0-.39,4,4,0,0,0,.45-.1c.24-.06.29-.21.31-.53s0-.94,0-1.72,0-1.45,0-1.67,0-.37-.23-.43a2.71,2.71,0,0,0-.51-.09A.61.61,0,0,1,175,55.42Z" transform="translate(-13.57 -30.24)"/><path class="cls-1" d="M189.22,39.7V38.34H194v1.87h-.34ZM194,59.24v1.87h-4.76V59.75l4.42-.51Zm-1.53-10.37c0-3.5,0-7-.1-10.53h3.26c-.1,3.43-.1,7-.1,10.53v1.3c0,3.91,0,7.44.1,10.94h-3.26c.1-3.43.1-7,.1-10.54Zm10.94-10.53,1.53,1.7H194v-1.7h12.13l.24,6h-1.9Zm-1.73,11.93H194V48.7h7.68ZM207,55.06l-.24,6H194v-1.7H205.6l-1.53,1.7,1.06-6Zm-6.46-6,.51-3.6h1.53V53.5h-1.53l-.51-3.78Z" transform="translate(-13.57 -30.24)"/><path class="cls-1" d="M210.88,46.87l-3.34-.58V45h8.16v1.29l-4.14.58ZM212,45l5.31,13.83-1.4,1.77L221.35,45h1.83L217,61.32h-1.4L208.73,45Zm9.32,1.87-3.4-.58V45h6.46v1.29l-2.38.58Z" transform="translate(-13.57 -30.24)"/><path class="cls-1" d="M239.6,51.05a7.1,7.1,0,0,1-.23,1.9H226.82V51.53h8.09c1.63,0,2-.79,2-1.74a3.76,3.76,0,0,0-3.77-3.7c-2.18,0-4.7,1.83-4.7,6.69,0,4.32,2.18,6.63,5.58,6.63A5.88,5.88,0,0,0,238.79,57l.78.61a6.89,6.89,0,0,1-6.49,3.94c-4.56,0-7.52-3.16-7.52-8.32s3.54-8.67,7.76-8.67C236.82,44.56,239.6,46.94,239.6,51.05Z" transform="translate(-13.57 -30.24)"/><path class="cls-1" d="M245.22,61.11c.06-1.53.1-5,.1-7.14V52.38c0-1.87,0-2.93-.1-4.29l-2.72-.3V46.6l4.62-2,.51.34.41,3.94V54c0,2.11,0,5.61.1,7.14Zm5.3-1.19v1.19H242.7V59.92l3.74-.68h.68Zm7.85-9.07V54c0,2.18,0,5.61.1,7.14h-2.92c.07-1.53.1-5,.1-7.14V51.12c0-3.16-.81-4.18-2.85-4.18-1.7,0-3.1.68-5,2.34h-.72V47.75h1.74l-1.47.61a9.22,9.22,0,0,1,6.73-3.8C257,44.56,258.37,46.36,258.37,50.85Zm-.92,8.39,3.4.68v1.19H253V59.92l3.73-.68Z" transform="translate(-13.57 -30.24)"/><path class="cls-1" d="M269.49,59.86a3.85,3.85,0,0,0,2.31-1l.78.92a4.83,4.83,0,0,1-3.94,1.73c-2.34,0-3.81-1.22-3.81-3.84,0-.81,0-1.53,0-2.85V46.77H262V45.3l4.22-.54-1.36,1.12,1-5.5h2l-.27,5.94v11C267.59,59.11,268.34,59.86,269.49,59.86ZM272.28,45v1.77h-6V45Z" transform="translate(-13.57 -30.24)"/><path class="cls-1" d="M274.46,60.26l-.14-3.7h1.8l.92,4-1.67-.78V58.63a6.48,6.48,0,0,0,4.19,1.4c2.61,0,3.84-1.06,3.84-2.62s-1-2.21-3.16-3l-1.57-.58c-2.48-.92-4.11-2.25-4.11-4.56s2.07-4.72,5.85-4.72A8.68,8.68,0,0,1,285.13,46L285,49.38h-1.71L282.62,46l1.22.54v.89a5.56,5.56,0,0,0-3.47-1.29c-2.11,0-3.19.91-3.19,2.34s.85,2.11,3.16,3l1,.37c3.4,1.26,4.69,2.86,4.69,5,0,2.51-2.21,4.82-6.56,4.82A10.32,10.32,0,0,1,274.46,60.26Z" transform="translate(-13.57 -30.24)"/></svg>